# MagicaVoxel @ Ephtracy

# group
o 

# material
mtllib pepper_walking_4.mtl
usemtl palette

# normals
vn -1 0 0
vn 1 0 0
vn 0 0 1
vn 0 0 -1
vn 0 -1 0
vn 0 1 0

# texcoords
vt 0.0175781 0.5
vt 0.970703 0.5
vt 0.974609 0.5
vt 0.978516 0.5

# verts
v -2.7 2.4 0.5
v -2.7 2.4 0.3
v -2.7 2.5 0.5
v -2.7 2.5 0.3
v -2.6 2 1.2
v -2.6 2 -0.4
v -2.6 2.2 1.4
v -2.6 2.2 1.2
v -2.6 2.2 -0.4
v -2.6 2.2 -0.6
v -2.6 2.3 1.4
v -2.6 2.3 1.2
v -2.6 2.3 -0.4
v -2.6 2.3 -0.6
v -2.6 2.4 1.4
v -2.6 2.4 1.2
v -2.6 2.4 0.5
v -2.6 2.4 0.3
v -2.6 2.4 -0.4
v -2.6 2.4 -0.6
v -2.6 2.5 1.4
v -2.6 2.5 1.2
v -2.6 2.5 1
v -2.6 2.5 0.6
v -2.6 2.5 0.5
v -2.6 2.5 0.3
v -2.6 2.5 0.2
v -2.6 2.5 -0.2
v -2.6 2.5 -0.4
v -2.6 2.5 -0.6
v -2.6 2.6 0.8
v -2.6 2.6 0.7
v -2.6 2.6 0.1
v -2.6 2.6 1.19209e-07
v -2.6 2.8 0.8
v -2.6 2.8 0.7
v -2.6 2.8 0.1
v -2.6 2.8 1.19209e-07
v -2.6 2.9 1
v -2.6 2.9 0.6
v -2.6 2.9 0.2
v -2.6 2.9 -0.2
v -2.6 3.2 1.2
v -2.6 3.2 -0.4
v -1.8 3.2 1.2
v -1.8 3.2 0.8
v -1.8 3.2 1.19209e-07
v -1.8 3.2 -0.4
v -1.8 3.6 1.2
v -1.8 3.6 0.8
v -1.8 3.6 1.19209e-07
v -1.8 3.6 -0.4
v -1.4 0 1.19209e-07
v -1.4 0 -0.4
v -1.4 0.4 1.19209e-07
v -1.4 0.4 -0.4
v -1.4 0.8 1.2
v -1.4 0.8 -0.4
v -1.4 2 1.2
v -1.4 2 -0.4
v -1 0.4 1.2
v -1 0.4 0.8
v -1 0.4 1.19209e-07
v -1 0.4 -0.4
v -1 0.8 1.2
v -1 0.8 0.8
v -1 0.8 1.19209e-07
v -1 0.8 -0.4
v -0.6 0 1.2
v -0.6 0 0.8
v -0.6 0.4 1.2
v -0.6 0.4 0.8
v 0.6 0 1.2
v 0.6 0 0.8
v 0.6 0.4 1.2
v 0.6 0.4 0.8
v 1 0.4 1.2
v 1 0.4 0.8
v 1 0.4 1.19209e-07
v 1 0.4 -0.4
v 1 0.8 1.2
v 1 0.8 0.8
v 1 0.8 1.19209e-07
v 1 0.8 -0.4
v 1.4 0 1.19209e-07
v 1.4 0 -0.4
v 1.4 0.4 1.19209e-07
v 1.4 0.4 -0.4
v 1.4 2 0.6
v 1.4 2 0.2
v 1.4 2.4 0.6
v 1.4 2.4 0.2
v 1.8 2.4 0.6
v 1.8 2.4 0.2
v 1.8 2.8 0.6
v 1.8 2.8 0.2
v 2.2 2.8 0.6
v 2.2 2.8 0.2
v 2.2 4 0.6
v 2.2 4 0.2
v -2.5 2.2 1.4
v -2.5 2.2 1.2
v -2.5 2.2 -0.4
v -2.5 2.2 -0.6
v -2.5 2.3 1.4
v -2.5 2.3 1.2
v -2.5 2.3 -0.4
v -2.5 2.3 -0.6
v -2.5 2.4 1.4
v -2.5 2.4 1.2
v -2.5 2.4 -0.4
v -2.5 2.4 -0.6
v -2.5 2.5 1.4
v -2.5 2.5 1.2
v -2.5 2.5 -0.4
v -2.5 2.5 -0.6
v -1.4 3.2 1.2
v -1.4 3.2 0.8
v -1.4 3.2 1.19209e-07
v -1.4 3.2 -0.4
v -1.4 3.6 1.2
v -1.4 3.6 0.8
v -1.4 3.6 1.19209e-07
v -1.4 3.6 -0.4
v -1 0 1.19209e-07
v -1 0 -0.4
v -1 0.4 1.19209e-07
v -1 0.4 -0.4
v -1 2 1.2
v -1 2 -0.4
v -1 3.2 1.2
v -1 3.2 -0.4
v -0.6 0.4 1.2
v -0.6 0.4 0.8
v -0.6 0.4 1.19209e-07
v -0.6 0.4 -0.4
v -0.6 0.8 1.2
v -0.6 0.8 0.8
v -0.6 0.8 1.19209e-07
v -0.6 0.8 -0.4
v -0.2 0 1.2
v -0.2 0 0.8
v -0.2 0.4 1.2
v -0.2 0.4 0.8
v 1 0 1.2
v 1 0 0.8
v 1 0.4 1.2
v 1 0.4 0.8
v 1.4 0.4 1.2
v 1.4 0.4 0.8
v 1.4 0.4 1.19209e-07
v 1.4 0.4 -0.4
v 1.4 0.8 1.2
v 1.4 0.8 0.8
v 1.4 0.8 1.19209e-07
v 1.4 0.8 -0.4
v 1.8 0 1.19209e-07
v 1.8 0 -0.4
v 1.8 0.4 1.19209e-07
v 1.8 0.4 -0.4
v 1.8 0.8 1.2
v 1.8 0.8 -0.4
v 1.8 2 1.2
v 1.8 2 0.6
v 1.8 2 0.2
v 1.8 2 -0.4
v 2.2 2 0.6
v 2.2 2 0.2
v 2.2 2.4 0.6
v 2.2 2.4 0.2
v 2.6 2.4 0.6
v 2.6 2.4 0.2
v 2.6 4 0.6
v 2.6 4 0.2
v -2.6 2.2 1.4
v -2.6 2.3 1.4
v -2.6 2.4 1.4
v -2.6 2.5 1.4
v -2.5 2.2 1.4
v -2.5 2.3 1.4
v -2.5 2.4 1.4
v -2.5 2.5 1.4
v -2.6 2 1.2
v -2.6 2.2 1.2
v -2.6 2.3 1.2
v -2.6 2.4 1.2
v -2.6 2.5 1.2
v -2.6 3.2 1.2
v -2.5 2.2 1.2
v -2.5 2.3 1.2
v -2.5 2.4 1.2
v -2.5 2.5 1.2
v -1.8 3.2 1.2
v -1.8 3.6 1.2
v -1.4 0.8 1.2
v -1.4 2 1.2
v -1.4 3.2 1.2
v -1.4 3.6 1.2
v -1 0.4 1.2
v -1 0.8 1.2
v -1 2 1.2
v -1 3.2 1.2
v -0.6 0 1.2
v -0.6 0.4 1.2
v -0.6 0.8 1.2
v -0.2 0 1.2
v -0.2 0.4 1.2
v 0.6 0 1.2
v 0.6 0.4 1.2
v 1 0 1.2
v 1 0.4 1.2
v 1 0.8 1.2
v 1.4 0.4 1.2
v 1.4 0.8 1.2
v 1.8 0.8 1.2
v 1.8 2 1.2
v 1.4 2 0.6
v 1.4 2.4 0.6
v 1.8 2 0.6
v 1.8 2.4 0.6
v 1.8 2.8 0.6
v 2.2 2 0.6
v 2.2 2.4 0.6
v 2.2 2.8 0.6
v 2.2 4 0.6
v 2.6 2.4 0.6
v 2.6 4 0.6
v -2.7 2.4 0.5
v -2.7 2.5 0.5
v -2.6 2.4 0.5
v -2.6 2.5 0.5
v -1.8 3.2 1.19209e-07
v -1.8 3.6 1.19209e-07
v -1.4 0 1.19209e-07
v -1.4 0.4 1.19209e-07
v -1.4 3.2 1.19209e-07
v -1.4 3.6 1.19209e-07
v -1 0 1.19209e-07
v -1 0.4 1.19209e-07
v -1 0.8 1.19209e-07
v -0.6 0.4 1.19209e-07
v -0.6 0.8 1.19209e-07
v 1 0.4 1.19209e-07
v 1 0.8 1.19209e-07
v 1.4 0 1.19209e-07
v 1.4 0.4 1.19209e-07
v 1.4 0.8 1.19209e-07
v 1.8 0 1.19209e-07
v 1.8 0.4 1.19209e-07
v -1.8 3.2 0.8
v -1.8 3.6 0.8
v -1.4 3.2 0.8
v -1.4 3.6 0.8
v -1 0.4 0.8
v -1 0.8 0.8
v -0.6 0 0.8
v -0.6 0.4 0.8
v -0.6 0.8 0.8
v -0.2 0 0.8
v -0.2 0.4 0.8
v 0.6 0 0.8
v 0.6 0.4 0.8
v 1 0 0.8
v 1 0.4 0.8
v 1 0.8 0.8
v 1.4 0.4 0.8
v 1.4 0.8 0.8
v -2.7 2.4 0.3
v -2.7 2.5 0.3
v -2.6 2.4 0.3
v -2.6 2.5 0.3
v 1.4 2 0.2
v 1.4 2.4 0.2
v 1.8 2 0.2
v 1.8 2.4 0.2
v 1.8 2.8 0.2
v 2.2 2 0.2
v 2.2 2.4 0.2
v 2.2 2.8 0.2
v 2.2 4 0.2
v 2.6 2.4 0.2
v 2.6 4 0.2
v -2.6 2 -0.4
v -2.6 2.2 -0.4
v -2.6 2.3 -0.4
v -2.6 2.4 -0.4
v -2.6 2.5 -0.4
v -2.6 3.2 -0.4
v -2.5 2.2 -0.4
v -2.5 2.3 -0.4
v -2.5 2.4 -0.4
v -2.5 2.5 -0.4
v -1.8 3.2 -0.4
v -1.8 3.6 -0.4
v -1.4 0 -0.4
v -1.4 0.4 -0.4
v -1.4 0.8 -0.4
v -1.4 2 -0.4
v -1.4 3.2 -0.4
v -1.4 3.6 -0.4
v -1 0 -0.4
v -1 0.4 -0.4
v -1 0.8 -0.4
v -1 2 -0.4
v -1 3.2 -0.4
v -0.6 0.4 -0.4
v -0.6 0.8 -0.4
v 1 0.4 -0.4
v 1 0.8 -0.4
v 1.4 0 -0.4
v 1.4 0.4 -0.4
v 1.4 0.8 -0.4
v 1.8 0 -0.4
v 1.8 0.4 -0.4
v 1.8 0.8 -0.4
v 1.8 2 -0.4
v -2.6 2.2 -0.6
v -2.6 2.3 -0.6
v -2.6 2.4 -0.6
v -2.6 2.5 -0.6
v -2.5 2.2 -0.6
v -2.5 2.3 -0.6
v -2.5 2.4 -0.6
v -2.5 2.5 -0.6
v -0.6 0 1.2
v -0.2 0 1.2
v 0.6 0 1.2
v 1 0 1.2
v -0.6 0 0.8
v -0.2 0 0.8
v 0.6 0 0.8
v 1 0 0.8
v -1.4 0 1.19209e-07
v -1 0 1.19209e-07
v 1.4 0 1.19209e-07
v 1.8 0 1.19209e-07
v -1.4 0 -0.4
v -1 0 -0.4
v 1.4 0 -0.4
v 1.8 0 -0.4
v -1 0.4 1.2
v -0.6 0.4 1.2
v 1 0.4 1.2
v 1.4 0.4 1.2
v -1 0.4 0.8
v -0.6 0.4 0.8
v 1 0.4 0.8
v 1.4 0.4 0.8
v -1 0.4 1.19209e-07
v -0.6 0.4 1.19209e-07
v 1 0.4 1.19209e-07
v 1.4 0.4 1.19209e-07
v -1 0.4 -0.4
v -0.6 0.4 -0.4
v 1 0.4 -0.4
v 1.4 0.4 -0.4
v -1.4 0.8 1.2
v -1 0.8 1.2
v -0.6 0.8 1.2
v 1 0.8 1.2
v 1.4 0.8 1.2
v 1.8 0.8 1.2
v -1 0.8 0.8
v -0.6 0.8 0.8
v 1 0.8 0.8
v 1.4 0.8 0.8
v -1 0.8 1.19209e-07
v -0.6 0.8 1.19209e-07
v 1 0.8 1.19209e-07
v 1.4 0.8 1.19209e-07
v -1.4 0.8 -0.4
v -1 0.8 -0.4
v -0.6 0.8 -0.4
v 1 0.8 -0.4
v 1.4 0.8 -0.4
v 1.8 0.8 -0.4
v -2.6 2 1.2
v -1.4 2 1.2
v 1.8 2 0.6
v 2.2 2 0.6
v 1.8 2 0.2
v 2.2 2 0.2
v -2.6 2 -0.4
v -1.4 2 -0.4
v -2.6 2.2 1.4
v -2.5 2.2 1.4
v -2.6 2.2 1.2
v -2.5 2.2 1.2
v -2.6 2.2 -0.4
v -2.5 2.2 -0.4
v -2.6 2.2 -0.6
v -2.5 2.2 -0.6
v -2.6 2.4 1.4
v -2.5 2.4 1.4
v -2.6 2.4 1.2
v -2.5 2.4 1.2
v 2.2 2.4 0.6
v 2.6 2.4 0.6
v -2.7 2.4 0.5
v -2.6 2.4 0.5
v -2.7 2.4 0.3
v -2.6 2.4 0.3
v 2.2 2.4 0.2
v 2.6 2.4 0.2
v -2.6 2.4 -0.4
v -2.5 2.4 -0.4
v -2.6 2.4 -0.6
v -2.5 2.4 -0.6
v -0.6 0.4 1.2
v -0.2 0.4 1.2
v 0.6 0.4 1.2
v 1 0.4 1.2
v -0.6 0.4 0.8
v -0.2 0.4 0.8
v 0.6 0.4 0.8
v 1 0.4 0.8
v -1.4 0.4 1.19209e-07
v -1 0.4 1.19209e-07
v 1.4 0.4 1.19209e-07
v 1.8 0.4 1.19209e-07
v -1.4 0.4 -0.4
v -1 0.4 -0.4
v 1.4 0.4 -0.4
v 1.8 0.4 -0.4
v -1 2 1.2
v 1.8 2 1.2
v 1.4 2 0.6
v 1.8 2 0.6
v 1.4 2 0.2
v 1.8 2 0.2
v -1 2 -0.4
v 1.8 2 -0.4
v -2.6 2.3 1.4
v -2.5 2.3 1.4
v -2.6 2.3 1.2
v -2.5 2.3 1.2
v -2.6 2.3 -0.4
v -2.5 2.3 -0.4
v -2.6 2.3 -0.6
v -2.5 2.3 -0.6
v 1.4 2.4 0.6
v 1.8 2.4 0.6
v 1.4 2.4 0.2
v 1.8 2.4 0.2
v -2.6 2.5 1.4
v -2.5 2.5 1.4
v -2.6 2.5 1.2
v -2.5 2.5 1.2
v -2.7 2.5 0.5
v -2.6 2.5 0.5
v -2.7 2.5 0.3
v -2.6 2.5 0.3
v -2.6 2.5 -0.4
v -2.5 2.5 -0.4
v -2.6 2.5 -0.6
v -2.5 2.5 -0.6
v 1.8 2.8 0.6
v 2.2 2.8 0.6
v 1.8 2.8 0.2
v 2.2 2.8 0.2
v -2.6 3.2 1.2
v -1.8 3.2 1.2
v -1.4 3.2 1.2
v -1 3.2 1.2
v -1.8 3.2 0.8
v -1.4 3.2 0.8
v -1.8 3.2 1.19209e-07
v -1.4 3.2 1.19209e-07
v -2.6 3.2 -0.4
v -1.8 3.2 -0.4
v -1.4 3.2 -0.4
v -1 3.2 -0.4
v -1.8 3.6 1.2
v -1.4 3.6 1.2
v -1.8 3.6 0.8
v -1.4 3.6 0.8
v -1.8 3.6 1.19209e-07
v -1.4 3.6 1.19209e-07
v -1.8 3.6 -0.4
v -1.4 3.6 -0.4
v 2.2 4 0.6
v 2.6 4 0.6
v 2.2 4 0.2
v 2.6 4 0.2

# faces
f 3/3/1 2/3/1 1/3/1
f 4/3/1 2/3/1 3/3/1
f 8/2/1 6/2/1 5/2/1
f 9/2/1 6/2/1 8/2/1
f 11/3/1 8/3/1 7/3/1
f 12/2/1 9/2/1 8/2/1
f 12/3/1 8/3/1 11/3/1
f 13/3/1 10/3/1 9/3/1
f 13/2/1 9/2/1 12/2/1
f 14/3/1 10/3/1 13/3/1
f 16/2/1 13/2/1 12/2/1
f 17/2/1 13/2/1 16/2/1
f 18/2/1 13/2/1 17/2/1
f 19/2/1 13/2/1 18/2/1
f 21/3/1 16/3/1 15/3/1
f 22/2/1 17/2/1 16/2/1
f 22/3/1 16/3/1 21/3/1
f 23/2/1 17/2/1 22/2/1
f 24/2/1 17/2/1 23/2/1
f 25/2/1 17/2/1 24/2/1
f 26/2/1 19/2/1 18/2/1
f 27/2/1 19/2/1 26/2/1
f 28/2/1 19/2/1 27/2/1
f 29/3/1 20/3/1 19/3/1
f 29/2/1 19/2/1 28/2/1
f 30/3/1 20/3/1 29/3/1
f 31/4/1 24/4/1 23/4/1
f 32/4/1 24/4/1 31/4/1
f 33/4/1 28/4/1 27/4/1
f 34/4/1 28/4/1 33/4/1
f 35/4/1 31/4/1 23/4/1
f 35/3/1 32/3/1 31/3/1
f 36/4/1 24/4/1 32/4/1
f 36/3/1 32/3/1 35/3/1
f 37/3/1 34/3/1 33/3/1
f 37/4/1 33/4/1 27/4/1
f 38/4/1 28/4/1 34/4/1
f 38/3/1 34/3/1 37/3/1
f 39/4/1 35/4/1 23/4/1
f 39/2/1 23/2/1 22/2/1
f 39/4/1 36/4/1 35/4/1
f 40/2/1 25/2/1 24/2/1
f 40/4/1 36/4/1 39/4/1
f 40/2/1 26/2/1 25/2/1
f 40/4/1 24/4/1 36/4/1
f 40/2/1 27/2/1 26/2/1
f 41/4/1 38/4/1 37/4/1
f 41/2/1 27/2/1 40/2/1
f 41/4/1 37/4/1 27/4/1
f 42/4/1 28/4/1 38/4/1
f 42/4/1 38/4/1 41/4/1
f 42/2/1 29/2/1 28/2/1
f 43/2/1 41/2/1 40/2/1
f 43/2/1 39/2/1 22/2/1
f 43/2/1 42/2/1 41/2/1
f 43/2/1 40/2/1 39/2/1
f 44/2/1 29/2/1 42/2/1
f 44/2/1 42/2/1 43/2/1
f 49/2/1 46/2/1 45/2/1
f 50/2/1 46/2/1 49/2/1
f 51/2/1 48/2/1 47/2/1
f 52/2/1 48/2/1 51/2/1
f 55/2/1 54/2/1 53/2/1
f 56/2/1 54/2/1 55/2/1
f 59/2/1 58/2/1 57/2/1
f 60/2/1 58/2/1 59/2/1
f 65/2/1 62/2/1 61/2/1
f 66/2/1 62/2/1 65/2/1
f 67/2/1 64/2/1 63/2/1
f 68/2/1 64/2/1 67/2/1
f 71/2/1 70/2/1 69/2/1
f 72/2/1 70/2/1 71/2/1
f 75/2/1 74/2/1 73/2/1
f 76/2/1 74/2/1 75/2/1
f 81/2/1 78/2/1 77/2/1
f 82/2/1 78/2/1 81/2/1
f 83/2/1 80/2/1 79/2/1
f 84/2/1 80/2/1 83/2/1
f 87/2/1 86/2/1 85/2/1
f 88/2/1 86/2/1 87/2/1
f 91/2/1 90/2/1 89/2/1
f 92/2/1 90/2/1 91/2/1
f 95/2/1 94/2/1 93/2/1
f 96/2/1 94/2/1 95/2/1
f 99/2/1 98/2/1 97/2/1
f 100/2/1 98/2/1 99/2/1
f 101/3/2 102/3/2 105/3/2
f 105/3/2 102/3/2 106/3/2
f 103/3/2 104/3/2 107/3/2
f 107/3/2 104/3/2 108/3/2
f 109/3/2 110/3/2 113/3/2
f 113/3/2 110/3/2 114/3/2
f 111/3/2 112/3/2 115/3/2
f 115/3/2 112/3/2 116/3/2
f 117/2/2 118/2/2 121/2/2
f 121/2/2 118/2/2 122/2/2
f 119/2/2 120/2/2 123/2/2
f 123/2/2 120/2/2 124/2/2
f 125/2/2 126/2/2 127/2/2
f 127/2/2 126/2/2 128/2/2
f 129/2/2 130/2/2 131/2/2
f 131/2/2 130/2/2 132/2/2
f 133/2/2 134/2/2 137/2/2
f 137/2/2 134/2/2 138/2/2
f 135/2/2 136/2/2 139/2/2
f 139/2/2 136/2/2 140/2/2
f 141/2/2 142/2/2 143/2/2
f 143/2/2 142/2/2 144/2/2
f 145/2/2 146/2/2 147/2/2
f 147/2/2 146/2/2 148/2/2
f 149/2/2 150/2/2 153/2/2
f 153/2/2 150/2/2 154/2/2
f 151/2/2 152/2/2 155/2/2
f 155/2/2 152/2/2 156/2/2
f 157/2/2 158/2/2 159/2/2
f 159/2/2 158/2/2 160/2/2
f 161/2/2 162/2/2 163/2/2
f 163/2/2 162/2/2 164/2/2
f 164/2/2 162/2/2 165/2/2
f 165/2/2 162/2/2 166/2/2
f 167/2/2 168/2/2 169/2/2
f 169/2/2 168/2/2 170/2/2
f 171/2/2 172/2/2 173/2/2
f 173/2/2 172/2/2 174/2/2
f 179/3/3 176/3/3 175/3/3
f 180/3/3 176/3/3 179/3/3
f 181/3/3 178/3/3 177/3/3
f 182/3/3 178/3/3 181/3/3
f 189/2/3 184/2/3 183/2/3
f 190/2/3 186/2/3 185/2/3
f 191/2/3 186/2/3 190/2/3
f 192/2/3 188/2/3 187/2/3
f 193/2/3 191/2/3 190/2/3
f 193/2/3 192/2/3 191/2/3
f 193/2/3 188/2/3 192/2/3
f 193/2/3 190/2/3 189/2/3
f 196/2/3 189/2/3 183/2/3
f 196/2/3 194/2/3 193/2/3
f 196/2/3 193/2/3 189/2/3
f 197/2/3 194/2/3 196/2/3
f 198/2/3 194/2/3 197/2/3
f 200/2/3 196/2/3 195/2/3
f 200/2/3 197/2/3 196/2/3
f 201/2/3 197/2/3 200/2/3
f 202/2/3 197/2/3 201/2/3
f 204/2/3 200/2/3 199/2/3
f 204/2/3 201/2/3 200/2/3
f 205/2/3 201/2/3 204/2/3
f 206/2/3 204/2/3 203/2/3
f 207/2/3 204/2/3 206/2/3
f 210/2/3 209/2/3 208/2/3
f 211/2/3 209/2/3 210/2/3
f 212/2/3 201/2/3 205/2/3
f 213/2/3 212/2/3 211/2/3
f 214/2/3 201/2/3 212/2/3
f 214/2/3 212/2/3 213/2/3
f 215/2/3 201/2/3 214/2/3
f 216/2/3 201/2/3 215/2/3
f 219/2/3 218/2/3 217/2/3
f 220/2/3 218/2/3 219/2/3
f 222/2/3 220/2/3 219/2/3
f 222/2/3 221/2/3 220/2/3
f 223/2/3 221/2/3 222/2/3
f 224/2/3 221/2/3 223/2/3
f 226/2/3 225/2/3 224/2/3
f 226/2/3 224/2/3 223/2/3
f 227/2/3 225/2/3 226/2/3
f 230/3/3 229/3/3 228/3/3
f 231/3/3 229/3/3 230/3/3
f 236/2/3 233/2/3 232/2/3
f 237/2/3 233/2/3 236/2/3
f 238/2/3 235/2/3 234/2/3
f 239/2/3 235/2/3 238/2/3
f 241/2/3 240/2/3 239/2/3
f 242/2/3 240/2/3 241/2/3
f 246/2/3 244/2/3 243/2/3
f 247/2/3 244/2/3 246/2/3
f 248/2/3 246/2/3 245/2/3
f 249/2/3 246/2/3 248/2/3
f 250/2/4 251/2/4 252/2/4
f 252/2/4 251/2/4 253/2/4
f 254/2/4 255/2/4 257/2/4
f 257/2/4 255/2/4 258/2/4
f 256/2/4 257/2/4 259/2/4
f 259/2/4 257/2/4 260/2/4
f 261/2/4 262/2/4 263/2/4
f 263/2/4 262/2/4 264/2/4
f 264/2/4 265/2/4 266/2/4
f 266/2/4 265/2/4 267/2/4
f 268/3/4 269/3/4 270/3/4
f 270/3/4 269/3/4 271/3/4
f 272/2/4 273/2/4 274/2/4
f 274/2/4 273/2/4 275/2/4
f 274/2/4 275/2/4 277/2/4
f 275/2/4 276/2/4 277/2/4
f 277/2/4 276/2/4 278/2/4
f 278/2/4 276/2/4 279/2/4
f 279/2/4 280/2/4 281/2/4
f 278/2/4 279/2/4 281/2/4
f 281/2/4 280/2/4 282/2/4
f 283/2/4 284/2/4 289/2/4
f 285/2/4 286/2/4 290/2/4
f 290/2/4 286/2/4 291/2/4
f 287/2/4 288/2/4 292/2/4
f 290/2/4 291/2/4 293/2/4
f 291/2/4 292/2/4 293/2/4
f 292/2/4 288/2/4 293/2/4
f 289/2/4 290/2/4 293/2/4
f 283/2/4 289/2/4 298/2/4
f 289/2/4 293/2/4 298/2/4
f 293/2/4 294/2/4 298/2/4
f 298/2/4 294/2/4 299/2/4
f 299/2/4 294/2/4 300/2/4
f 295/2/4 296/2/4 301/2/4
f 301/2/4 296/2/4 302/2/4
f 297/2/4 298/2/4 303/2/4
f 298/2/4 299/2/4 303/2/4
f 303/2/4 299/2/4 304/2/4
f 304/2/4 299/2/4 305/2/4
f 302/2/4 303/2/4 306/2/4
f 303/2/4 304/2/4 306/2/4
f 306/2/4 304/2/4 307/2/4
f 307/2/4 304/2/4 309/2/4
f 308/2/4 309/2/4 311/2/4
f 309/2/4 304/2/4 312/2/4
f 311/2/4 309/2/4 312/2/4
f 310/2/4 311/2/4 313/2/4
f 313/2/4 311/2/4 314/2/4
f 312/2/4 304/2/4 315/2/4
f 315/2/4 304/2/4 316/2/4
f 317/3/4 318/3/4 321/3/4
f 321/3/4 318/3/4 322/3/4
f 319/3/4 320/3/4 323/3/4
f 323/3/4 320/3/4 324/3/4
f 329/2/5 326/2/5 325/2/5
f 330/2/5 326/2/5 329/2/5
f 331/2/5 328/2/5 327/2/5
f 332/2/5 328/2/5 331/2/5
f 337/2/5 334/2/5 333/2/5
f 338/2/5 334/2/5 337/2/5
f 339/2/5 336/2/5 335/2/5
f 340/2/5 336/2/5 339/2/5
f 345/2/5 342/2/5 341/2/5
f 346/2/5 342/2/5 345/2/5
f 347/2/5 344/2/5 343/2/5
f 348/2/5 344/2/5 347/2/5
f 353/2/5 350/2/5 349/2/5
f 354/2/5 350/2/5 353/2/5
f 355/2/5 352/2/5 351/2/5
f 356/2/5 352/2/5 355/2/5
f 363/2/5 358/2/5 357/2/5
f 364/2/5 360/2/5 359/2/5
f 365/2/5 360/2/5 364/2/5
f 366/2/5 362/2/5 361/2/5
f 367/2/5 365/2/5 364/2/5
f 367/2/5 366/2/5 365/2/5
f 367/2/5 363/2/5 357/2/5
f 367/2/5 364/2/5 363/2/5
f 368/2/5 366/2/5 367/2/5
f 369/2/5 366/2/5 368/2/5
f 370/2/5 362/2/5 366/2/5
f 370/2/5 366/2/5 369/2/5
f 371/2/5 367/2/5 357/2/5
f 372/2/5 367/2/5 371/2/5
f 373/2/5 369/2/5 368/2/5
f 374/2/5 369/2/5 373/2/5
f 375/2/5 362/2/5 370/2/5
f 376/2/5 362/2/5 375/2/5
f 381/2/5 380/2/5 379/2/5
f 382/2/5 380/2/5 381/2/5
f 383/2/5 378/2/5 377/2/5
f 384/2/5 378/2/5 383/2/5
f 387/3/5 386/3/5 385/3/5
f 388/3/5 386/3/5 387/3/5
f 391/3/5 390/3/5 389/3/5
f 392/3/5 390/3/5 391/3/5
f 395/3/5 394/3/5 393/3/5
f 396/3/5 394/3/5 395/3/5
f 401/3/5 400/3/5 399/3/5
f 402/3/5 400/3/5 401/3/5
f 403/2/5 398/2/5 397/2/5
f 404/2/5 398/2/5 403/2/5
f 407/3/5 406/3/5 405/3/5
f 408/3/5 406/3/5 407/3/5
f 409/2/6 410/2/6 413/2/6
f 413/2/6 410/2/6 414/2/6
f 411/2/6 412/2/6 415/2/6
f 415/2/6 412/2/6 416/2/6
f 417/2/6 418/2/6 421/2/6
f 421/2/6 418/2/6 422/2/6
f 419/2/6 420/2/6 423/2/6
f 423/2/6 420/2/6 424/2/6
f 425/2/6 426/2/6 427/2/6
f 427/2/6 426/2/6 428/2/6
f 425/2/6 427/2/6 429/2/6
f 425/2/6 429/2/6 431/2/6
f 429/2/6 430/2/6 431/2/6
f 431/2/6 430/2/6 432/2/6
f 433/3/6 434/3/6 435/3/6
f 435/3/6 434/3/6 436/3/6
f 437/3/6 438/3/6 439/3/6
f 439/3/6 438/3/6 440/3/6
f 441/2/6 442/2/6 443/2/6
f 443/2/6 442/2/6 444/2/6
f 445/3/6 446/3/6 447/3/6
f 447/3/6 446/3/6 448/3/6
f 449/3/6 450/3/6 451/3/6
f 451/3/6 450/3/6 452/3/6
f 453/3/6 454/3/6 455/3/6
f 455/3/6 454/3/6 456/3/6
f 457/2/6 458/2/6 459/2/6
f 459/2/6 458/2/6 460/2/6
f 461/2/6 462/2/6 465/2/6
f 463/2/6 464/2/6 466/2/6
f 461/2/6 465/2/6 467/2/6
f 465/2/6 466/2/6 467/2/6
f 466/2/6 464/2/6 468/2/6
f 467/2/6 466/2/6 468/2/6
f 461/2/6 467/2/6 469/2/6
f 469/2/6 467/2/6 470/2/6
f 468/2/6 464/2/6 471/2/6
f 471/2/6 464/2/6 472/2/6
f 473/2/6 474/2/6 475/2/6
f 475/2/6 474/2/6 476/2/6
f 477/2/6 478/2/6 479/2/6
f 479/2/6 478/2/6 480/2/6
f 481/2/6 482/2/6 483/2/6
f 483/2/6 482/2/6 484/2/6
